<!DOCTYPE svg PUBLIC "-//W3C//DTD SVG 1.1//EN" "http://www.w3.org/Graphics/SVG/1.1/DTD/svg11.dtd">
<!-- Uploaded to: SVG Repo, www.svgrepo.com, Transformed by: SVG Repo Mixer Tools -->
<svg version="1.1" id="Capa_1" xmlns="http://www.w3.org/2000/svg" xmlns:xlink="http://www.w3.org/1999/xlink" width="232px" height="232px" viewBox="-25.41 -25.41 413.84 413.84" xml:space="preserve" fill="#edda07" stroke="#edda07" stroke-width="9.438649999999999">
<g id="SVGRepo_bgCarrier" stroke-width="0"/>
<g id="SVGRepo_iconCarrier"> <g> <g> <path style="fill:#FAD02C;" d="M181.512,0C81.422,0,0,81.424,0,181.513c0,100.088,81.422,181.512,181.512,181.512 c100.089,0,181.513-81.424,181.513-181.512C363.025,81.424,281.601,0,181.512,0z M181.512,351.314 c-93.626,0-169.802-76.175-169.802-169.802S87.886,11.71,181.512,11.71c93.627,0,169.803,76.176,169.803,169.803 S275.139,351.314,181.512,351.314z"/> <polygon style="fill:#FAD02C;" points="187.368,111.25 175.658,111.25 175.658,175.657 111.25,175.657 111.25,187.368 175.658,187.368 175.658,251.775 187.368,251.775 187.368,187.368 251.776,187.368 251.776,175.657 187.368,175.657 "/> </g> </g> </g>
</svg>